<mxfile host="app.diagrams.net" modified="2024-01-08T14:32:57.301Z" agent="Mozilla/5.0 (X11; CrOS x86_64 14541.0.0) AppleWebKit/537.36 (KHTML, like Gecko) Chrome/120.0.0.0 Safari/537.36" version="22.1.17" etag="zzw7dxGjcRoNvZrLxGg9" type="github">
  <diagram name="Page-1" id="dAIMUaLJl3p0Fxk_P1cy">
    <mxGraphModel>
      <root>
        <mxCell id="0" />
        <mxCell id="1" parent="0" />
      </root>
    </mxGraphModel>
  </diagram>
</mxfile>
